<svg xmlns="http://www.w3.org/2000/svg" xmlns:xlink="http://www.w3.org/1999/xlink" width="1080" zoomAndPan="magnify" viewBox="0 0 810 809.999993" height="1080" preserveAspectRatio="xMidYMid meet" version="1.0"><defs><g/></defs><g fill="#9528cf" fill-opacity="1"><g transform="translate(-28.59451, 682.251949)"><g><path d="M 205.015625 -536.703125 L 314.359375 -536.703125 L 120.28125 -103.875 L 51.03125 -103.875 L 51.03125 0 L 290.671875 0 L 290.671875 -103.875 L 236 -103.875 L 264.25 -170.390625 L 505.71875 -170.390625 L 534.875 -103.875 L 485.671875 -103.875 L 485.671875 0 L 723.5 0 L 723.5 -103.875 L 654.25 -103.875 L 414.59375 -640.578125 L 205.015625 -640.578125 Z M 385.4375 -451.953125 L 467.453125 -260.609375 L 303.4375 -260.609375 Z M 307.078125 -11.84375 L 397.28125 47.375 L 397.28125 32.796875 L 307.078125 -26.421875 Z M 307.078125 -44.65625 L 397.28125 14.578125 L 397.28125 0 L 307.078125 -59.234375 Z M 266.984375 -135.765625 L 291.578125 -120.28125 L 307.078125 -120.28125 L 307.078125 -110.25 L 360.84375 -74.71875 L 365.390625 -86.5625 L 273.359375 -147.609375 C 271.53125 -143.0625 268.8125 -140.328125 266.984375 -135.765625 Z M 739.890625 -21.875 L 830.109375 37.359375 L 830.109375 22.78125 L 739.890625 -36.453125 Z M 739.890625 -54.671875 L 830.109375 4.5625 L 830.109375 -9.109375 L 739.890625 -69.25 Z M 830.109375 70.15625 L 830.109375 55.578125 L 739.890625 -3.640625 L 739.890625 10.9375 L 829.1875 70.15625 Z M 397.28125 70.15625 L 397.28125 65.609375 L 307.078125 5.46875 L 307.078125 16.40625 L 299.78125 16.40625 L 381.796875 70.15625 Z M 101.140625 16.40625 L 182.234375 70.15625 L 205.015625 70.15625 L 123.921875 16.40625 Z M 150.34375 16.40625 L 232.359375 70.15625 L 255.140625 70.15625 L 173.125 16.40625 Z M 647.859375 16.40625 L 729.875 70.15625 L 752.65625 70.15625 L 670.640625 16.40625 Z M 250.578125 16.40625 L 331.671875 70.15625 L 354.453125 70.15625 L 272.453125 16.40625 Z M 290.671875 -154 L 371.765625 -100.234375 L 394.546875 -100.234375 L 312.546875 -154 Z M 697.984375 16.40625 L 779.984375 70.15625 L 801.859375 70.15625 L 720.765625 16.40625 Z M 339.875 -154 L 421.890625 -100.234375 L 443.75 -100.234375 L 362.65625 -154 Z M 200.46875 16.40625 L 282.46875 70.15625 L 304.34375 70.15625 L 223.25 16.40625 Z M 598.65625 16.40625 L 679.75 70.15625 L 702.53125 70.15625 L 620.53125 16.40625 Z M 548.546875 16.40625 L 630.546875 70.15625 L 652.421875 70.15625 L 571.328125 16.40625 Z M 548.546875 -377.234375 L 628.734375 -324.390625 L 618.703125 -345.34375 L 539.4375 -397.28125 Z M 466.53125 -563.125 L 545.8125 -510.28125 L 536.703125 -531.234375 L 456.515625 -584.078125 Z M 569.5 -330.765625 L 648.78125 -277.921875 L 639.671875 -298.875 L 560.390625 -351.71875 Z M 611.421875 -236.90625 L 690.6875 -184.96875 L 680.671875 -205.9375 L 602.3125 -257.875 Z M 528.5 -423.703125 L 606.859375 -371.765625 L 597.75 -391.8125 L 518.46875 -444.671875 Z M 397.28125 -28.25 L 353.546875 -57.40625 L 354.453125 -61.046875 L 307.078125 -92.03125 L 307.078125 -77.453125 L 397.28125 -18.21875 Z M 507.546875 -470.1875 L 586.8125 -417.328125 L 577.703125 -438.28125 L 498.421875 -490.234375 Z M 590.453125 -284.296875 L 669.734375 -231.453125 L 660.625 -252.40625 L 581.34375 -304.34375 Z M 486.578125 -516.65625 L 565.859375 -463.796875 L 556.75 -484.765625 L 477.46875 -536.703125 Z M 632.375 -191.359375 L 710.734375 -139.421875 L 701.625 -159.453125 L 623.265625 -211.40625 Z M 355.375 -340.796875 L 439.203125 -286.125 L 430.09375 -306.171875 L 360.84375 -351.71875 Z M 439.203125 -624.171875 L 447.40625 -605.03125 L 526.671875 -553.09375 L 519.390625 -570.40625 Z M 390 -154 L 469.265625 -101.140625 L 469.265625 -116.640625 L 411.859375 -154 Z M 344.4375 -314.359375 L 401.84375 -277 L 424.625 -277 L 349.90625 -326.203125 Z M 652.421875 -144.875 L 689.78125 -120.28125 L 711.65625 -120.28125 L 643.3125 -164.921875 Z M 509.359375 -120.28125 L 506.625 -123.921875 L 461.984375 -154 L 440.109375 -154 L 491.140625 -120.28125 Z M 366.296875 -366.296875 L 418.25 -331.671875 L 409.125 -352.640625 L 371.765625 -377.234375 Z M 232.359375 -520.296875 L 276.09375 -491.140625 L 281.5625 -502.078125 L 255.140625 -520.296875 Z M 352.640625 -277 L 375.421875 -277 L 338.96875 -300.703125 L 333.5 -288.84375 Z M 377.234375 -391.8125 L 398.203125 -377.234375 L 390 -398.203125 L 382.703125 -402.75 Z M 377.234375 -391.8125 "/></g></g></g></svg>