<svg xmlns="http://www.w3.org/2000/svg" xmlns:xlink="http://www.w3.org/1999/xlink" width="1000" zoomAndPan="magnify" viewBox="0 0 750 225" height="300" preserveAspectRatio="xMidYMid meet" version="1.0"><defs><g/></defs><g fill="#ffffff" fill-opacity="1"><g transform="translate(241.518395, 197.331127)"><g><path d="M 40.90625 -115.15625 C 54.71875 -124.582031 63.851562 -129.296875 68.3125 -129.296875 C 72.769531 -129.296875 76.804688 -128.453125 80.421875 -126.765625 C 84.046875 -125.085938 86.703125 -123.40625 88.390625 -121.71875 L 90.65625 -119.453125 C 88.132812 -108.671875 86.195312 -101.929688 84.84375 -99.234375 C 83.5 -96.546875 81.691406 -95.203125 79.421875 -95.203125 C 77.148438 -95.203125 74.242188 -96.128906 70.703125 -97.984375 C 67.171875 -99.835938 63.972656 -100.765625 61.109375 -100.765625 C 58.242188 -100.765625 52.519531 -98.15625 43.9375 -92.9375 L 43.9375 0 C 43.9375 1.007812 43.769531 1.679688 43.4375 2.015625 C 42.757812 3.367188 39.644531 4.046875 34.09375 4.046875 C 28.539062 4.046875 23.363281 3.625 18.5625 2.78125 C 13.757812 1.9375 11.359375 1.007812 11.359375 0 L 11.359375 -125.25 C 11.359375 -127.945312 15.144531 -129.296875 22.71875 -129.296875 C 30.300781 -129.296875 34.679688 -127.945312 35.859375 -125.25 L 35.859375 -124.75 Z M 40.90625 -115.15625 "/></g></g></g><g fill="#ffffff" fill-opacity="1"><g transform="translate(334.441428, 197.331127)"><g><path d="M 23.484375 -105.046875 L 3.28125 -105.046875 C 1.257812 -105.046875 0.125 -105.507812 -0.125 -106.4375 C -0.375 -107.363281 -0.5 -108.414062 -0.5 -109.59375 C -0.5 -116.832031 0.757812 -120.707031 3.28125 -121.21875 L 23.484375 -125.25 L 37.625 -153.796875 C 39.644531 -156.316406 43.519531 -157.578125 49.25 -157.578125 C 50.757812 -157.578125 52.1875 -154.546875 53.53125 -148.484375 C 54.882812 -142.421875 56.316406 -134.675781 57.828125 -125.25 L 82.078125 -125.25 C 84.765625 -125.25 86.109375 -121.878906 86.109375 -115.140625 C 86.109375 -108.410156 84.765625 -105.046875 82.078125 -105.046875 L 57.578125 -105.046875 L 57.578125 -24.75 L 61.625 3.78125 L 61.625 4.046875 C 61.789062 5.054688 61.789062 5.726562 61.625 6.0625 C 60.78125 7.40625 56.566406 8.078125 48.984375 8.078125 C 41.410156 8.078125 36.867188 6.5625 35.359375 3.53125 L 23.484375 -20.453125 Z M 23.484375 -105.046875 "/></g></g></g><g fill="#ffffff" fill-opacity="1"><g transform="translate(419.536712, 197.331127)"><g><path d="M 46.71875 4.046875 C 34.257812 4.046875 25.125 0.175781 19.3125 -7.5625 C 13.507812 -15.3125 10.609375 -28.953125 10.609375 -48.484375 L 10.609375 -125.25 C 10.609375 -127.945312 13.679688 -129.296875 19.828125 -129.296875 C 25.972656 -129.296875 31.988281 -128.875 37.875 -128.03125 C 43.769531 -127.1875 46.71875 -126.257812 46.71875 -125.25 L 46.96875 -48.484375 C 46.96875 -29.628906 48.316406 -20.203125 51.015625 -20.203125 C 57.078125 -20.203125 65.15625 -23.234375 75.25 -29.296875 L 75.25 -125.25 C 75.25 -127.945312 78.320312 -129.296875 84.46875 -129.296875 C 90.613281 -129.296875 96.675781 -128.875 102.65625 -128.03125 C 108.632812 -127.1875 111.625 -126.257812 111.625 -125.25 L 111.625 0 C 111.625 1.007812 111.453125 1.679688 111.109375 2.015625 C 110.441406 3.367188 106.109375 4.046875 98.109375 4.046875 C 90.109375 4.046875 85.179688 2.695312 83.328125 0 L 78.03125 -7.828125 C 66.25 0.0859375 55.8125 4.046875 46.71875 4.046875 Z M 46.71875 4.046875 "/></g></g></g><g fill="#ffffff" fill-opacity="1"><g transform="translate(542.508229, 197.331127)"><g><path d="M 40.90625 -115.15625 C 54.71875 -124.582031 63.851562 -129.296875 68.3125 -129.296875 C 72.769531 -129.296875 76.804688 -128.453125 80.421875 -126.765625 C 84.046875 -125.085938 86.703125 -123.40625 88.390625 -121.71875 L 90.65625 -119.453125 C 88.132812 -108.671875 86.195312 -101.929688 84.84375 -99.234375 C 83.5 -96.546875 81.691406 -95.203125 79.421875 -95.203125 C 77.148438 -95.203125 74.242188 -96.128906 70.703125 -97.984375 C 67.171875 -99.835938 63.972656 -100.765625 61.109375 -100.765625 C 58.242188 -100.765625 52.519531 -98.15625 43.9375 -92.9375 L 43.9375 0 C 43.9375 1.007812 43.769531 1.679688 43.4375 2.015625 C 42.757812 3.367188 39.644531 4.046875 34.09375 4.046875 C 28.539062 4.046875 23.363281 3.625 18.5625 2.78125 C 13.757812 1.9375 11.359375 1.007812 11.359375 0 L 11.359375 -125.25 C 11.359375 -127.945312 15.144531 -129.296875 22.71875 -129.296875 C 30.300781 -129.296875 34.679688 -127.945312 35.859375 -125.25 L 35.859375 -124.75 Z M 40.90625 -115.15625 "/></g></g></g><g fill="#ffffff" fill-opacity="1"><g transform="translate(635.431262, 197.331127)"><g><path d="M 9.34375 -63.140625 C 9.34375 -81.484375 10.941406 -95.367188 14.140625 -104.796875 C 17.335938 -114.222656 22.382812 -120.660156 29.28125 -124.109375 C 36.1875 -127.566406 46.375 -129.296875 59.84375 -129.296875 C 73.3125 -129.296875 83.5 -127.566406 90.40625 -124.109375 C 97.3125 -120.660156 102.363281 -114.222656 105.5625 -104.796875 C 108.757812 -95.367188 110.359375 -81.484375 110.359375 -63.140625 C 110.359375 -37.878906 106.738281 -20.363281 99.5 -10.59375 C 92.257812 -0.832031 79.039062 4.046875 59.84375 4.046875 C 40.65625 4.046875 27.441406 -0.832031 20.203125 -10.59375 C 12.960938 -20.363281 9.34375 -37.878906 9.34375 -63.140625 Z M 43.6875 -63.140625 C 43.6875 -34.847656 46.378906 -20.703125 51.765625 -20.703125 C 59.171875 -20.703125 64.644531 -21.882812 68.1875 -24.25 C 70.039062 -25.59375 71.300781 -28.03125 71.96875 -31.5625 C 73.3125 -38.632812 73.984375 -49.160156 73.984375 -63.140625 C 73.984375 -91.078125 71.289062 -105.046875 65.90625 -105.046875 C 55.8125 -105.046875 49.582031 -102.726562 47.21875 -98.09375 C 44.863281 -93.46875 43.6875 -81.816406 43.6875 -63.140625 Z M 43.6875 -63.140625 "/></g></g></g><g fill="#9528cf" fill-opacity="1"><g transform="translate(-1.602969, 195.446855)"><g><path d="M 61.015625 -159.734375 L 93.5625 -159.734375 L 35.796875 -30.921875 L 15.1875 -30.921875 L 15.1875 0 L 86.515625 0 L 86.515625 -30.921875 L 70.234375 -30.921875 L 78.65625 -50.71875 L 150.515625 -50.71875 L 159.203125 -30.921875 L 144.546875 -30.921875 L 144.546875 0 L 215.328125 0 L 215.328125 -30.921875 L 194.71875 -30.921875 L 123.390625 -190.65625 L 61.015625 -190.65625 Z M 114.71875 -134.515625 L 139.125 -77.5625 L 90.3125 -77.5625 Z M 91.390625 -3.53125 L 118.25 14.109375 L 118.25 9.765625 L 91.390625 -7.859375 Z M 91.390625 -13.28125 L 118.25 4.34375 L 118.25 0 L 91.390625 -17.625 Z M 79.46875 -40.40625 L 86.78125 -35.796875 L 91.390625 -35.796875 L 91.390625 -32.8125 L 107.390625 -22.234375 L 108.75 -25.765625 L 81.359375 -43.9375 C 80.8125 -42.578125 80 -41.765625 79.46875 -40.40625 Z M 220.21875 -6.515625 L 247.0625 11.125 L 247.0625 6.78125 L 220.21875 -10.84375 Z M 220.21875 -16.265625 L 247.0625 1.359375 L 247.0625 -2.71875 L 220.21875 -20.609375 Z M 247.0625 20.875 L 247.0625 16.546875 L 220.21875 -1.078125 L 220.21875 3.25 L 246.796875 20.875 Z M 118.25 20.875 L 118.25 19.53125 L 91.390625 1.625 L 91.390625 4.875 L 89.21875 4.875 L 113.640625 20.875 Z M 30.109375 4.875 L 54.234375 20.875 L 61.015625 20.875 L 36.890625 4.875 Z M 44.75 4.875 L 69.15625 20.875 L 75.9375 20.875 L 51.53125 4.875 Z M 192.828125 4.875 L 217.234375 20.875 L 224.015625 20.875 L 199.609375 4.875 Z M 74.578125 4.875 L 98.71875 20.875 L 105.5 20.875 L 81.09375 4.875 Z M 86.515625 -45.828125 L 110.65625 -29.828125 L 117.4375 -29.828125 L 93.015625 -45.828125 Z M 207.734375 4.875 L 232.15625 20.875 L 238.65625 20.875 L 214.515625 4.875 Z M 101.15625 -45.828125 L 125.5625 -29.828125 L 132.078125 -29.828125 L 107.9375 -45.828125 Z M 59.671875 4.875 L 84.078125 20.875 L 90.578125 20.875 L 66.4375 4.875 Z M 178.1875 4.875 L 202.3125 20.875 L 209.09375 20.875 L 184.6875 4.875 Z M 163.265625 4.875 L 187.671875 20.875 L 194.1875 20.875 L 170.046875 4.875 Z M 163.265625 -112.28125 L 187.125 -96.546875 L 184.140625 -102.78125 L 160.546875 -118.25 Z M 138.859375 -167.609375 L 162.453125 -151.875 L 159.734375 -158.109375 L 135.875 -173.84375 Z M 169.5 -98.453125 L 193.09375 -82.71875 L 190.390625 -88.953125 L 166.796875 -104.6875 Z M 181.984375 -70.515625 L 205.578125 -55.046875 L 202.59375 -61.296875 L 179.265625 -76.75 Z M 157.296875 -126.109375 L 180.625 -110.65625 L 177.90625 -116.625 L 154.3125 -132.34375 Z M 118.25 -8.40625 L 105.234375 -17.078125 L 105.5 -18.171875 L 91.390625 -27.390625 L 91.390625 -23.046875 L 118.25 -5.421875 Z M 151.0625 -139.9375 L 174.65625 -124.21875 L 171.9375 -130.453125 L 148.34375 -145.90625 Z M 175.734375 -84.609375 L 199.328125 -68.890625 L 196.625 -75.125 L 173.03125 -90.578125 Z M 144.828125 -153.765625 L 168.421875 -138.046875 L 165.703125 -144.28125 L 142.109375 -159.734375 Z M 188.21875 -56.953125 L 211.53125 -41.5 L 208.828125 -47.453125 L 185.5 -62.921875 Z M 105.765625 -101.4375 L 130.71875 -85.15625 L 128.015625 -91.125 L 107.390625 -104.6875 Z M 130.71875 -185.78125 L 133.15625 -180.078125 L 156.75 -164.625 L 154.578125 -169.765625 Z M 116.078125 -45.828125 L 139.671875 -30.109375 L 139.671875 -34.71875 L 122.578125 -45.828125 Z M 102.515625 -93.5625 L 119.59375 -82.453125 L 126.375 -82.453125 L 104.140625 -97.09375 Z M 194.1875 -43.125 L 205.296875 -35.796875 L 211.8125 -35.796875 L 191.46875 -49.09375 Z M 151.609375 -35.796875 L 150.78125 -36.890625 L 137.5 -45.828125 L 130.984375 -45.828125 L 146.171875 -35.796875 Z M 109.03125 -109.03125 L 124.484375 -98.71875 L 121.765625 -104.953125 L 110.65625 -112.28125 Z M 69.15625 -154.859375 L 82.171875 -146.171875 L 83.796875 -149.4375 L 75.9375 -154.859375 Z M 104.953125 -82.453125 L 111.734375 -82.453125 L 100.890625 -89.5 L 99.265625 -85.96875 Z M 112.28125 -116.625 L 118.515625 -112.28125 L 116.078125 -118.515625 L 113.90625 -119.875 Z M 112.28125 -116.625 "/></g></g></g></svg>